<svg xmlns="http://www.w3.org/2000/svg" viewBox="0 0 200 140" width="800" height="560"><path d="M0 0H200V140H0Z" fill="#38C6F4" stroke="#1B1B1B" stroke-width="1.5" stroke-linecap="round" stroke-linejoin="round"/><path d="M150.41 24.64L156 26L150.41 27.36Z" fill="#FFC21A" stroke="#1B1B1B" stroke-width="1.5" stroke-linecap="round" stroke-linejoin="round"/><path d="M149.7 30.03L153.86 34L148.34 32.38Z" fill="#FFC21A" stroke="#1B1B1B" stroke-width="1.5" stroke-linecap="round" stroke-linejoin="round"/><path d="M146.38 34.34L148 39.86L144.03 35.7Z" fill="#FFC21A" stroke="#1B1B1B" stroke-width="1.5" stroke-linecap="round" stroke-linejoin="round"/><path d="M141.36 36.41L140 42L138.64 36.41Z" fill="#FFC21A" stroke="#1B1B1B" stroke-width="1.5" stroke-linecap="round" stroke-linejoin="round"/><path d="M135.97 35.7L132 39.86L133.62 34.34Z" fill="#FFC21A" stroke="#1B1B1B" stroke-width="1.5" stroke-linecap="round" stroke-linejoin="round"/><path d="M131.66 32.38L126.14 34L130.3 30.03Z" fill="#FFC21A" stroke="#1B1B1B" stroke-width="1.5" stroke-linecap="round" stroke-linejoin="round"/><path d="M129.59 27.36L124 26L129.59 24.64Z" fill="#FFC21A" stroke="#1B1B1B" stroke-width="1.5" stroke-linecap="round" stroke-linejoin="round"/><path d="M130.3 21.97L126.14 18L131.66 19.62Z" fill="#FFC21A" stroke="#1B1B1B" stroke-width="1.5" stroke-linecap="round" stroke-linejoin="round"/><path d="M133.62 17.66L132 12.14L135.97 16.3Z" fill="#FFC21A" stroke="#1B1B1B" stroke-width="1.5" stroke-linecap="round" stroke-linejoin="round"/><path d="M138.64 15.59L140 10L141.36 15.59Z" fill="#FFC21A" stroke="#1B1B1B" stroke-width="1.5" stroke-linecap="round" stroke-linejoin="round"/><path d="M144.03 16.3L148 12.14L146.38 17.66Z" fill="#FFC21A" stroke="#1B1B1B" stroke-width="1.5" stroke-linecap="round" stroke-linejoin="round"/><path d="M148.34 19.62L153.86 18L149.7 21.97Z" fill="#FFC21A" stroke="#1B1B1B" stroke-width="1.5" stroke-linecap="round" stroke-linejoin="round"/><path d="M131 26A9 9 0 1 1 149 26A9 9 0 1 1 131 26Z" fill="#FFC21A" stroke="#1B1B1B" stroke-width="1.5" stroke-linecap="round" stroke-linejoin="round"/><path d="M0 70L14 46L30 30L48 40L70 56L110 48L150 58L200 50L200 96L0 96Z" fill="#1E9E8C" stroke="#1B1B1B" stroke-width="1.5" stroke-linecap="round" stroke-linejoin="round"/><path d="M0 86L40 78L100 84L160 76L200 82L200 104L0 104Z" fill="#3DB54A" stroke="#1B1B1B" stroke-width="1.5" stroke-linecap="round" stroke-linejoin="round"/><path d="M28 30L32 30L33 18L27 18Z" fill="#FFFFFF" stroke="#1B1B1B" stroke-width="1.5" stroke-linecap="round" stroke-linejoin="round"/><path d="M21 18L39 18L39 15.5L21 15.5Z" fill="#FFFFFF" stroke="#1B1B1B" stroke-width="1.5" stroke-linecap="round" stroke-linejoin="round"/><path d="M27.4 12.5A2.6 2.6 0 1 1 32.6 12.5A2.6 2.6 0 1 1 27.4 12.5Z" fill="#FFFFFF" stroke="#1B1B1B" stroke-width="1.5" stroke-linecap="round" stroke-linejoin="round"/><path d="M42 104L46 104L45.2 46L42.8 46Z" fill="#E4DCC8" stroke="#1B1B1B" stroke-width="1.5" stroke-linecap="round" stroke-linejoin="round"/><path d="M44 46L28 48L20 56L32 51Z" fill="#2BB04A" stroke="#1B1B1B" stroke-width="1.5" stroke-linecap="round" stroke-linejoin="round"/><path d="M44 46L60 48L68 56L56 51Z" fill="#2BB04A" stroke="#1B1B1B" stroke-width="1.5" stroke-linecap="round" stroke-linejoin="round"/><path d="M44 46L36 36L26 34L36 42Z" fill="#2BB04A" stroke="#1B1B1B" stroke-width="1.5" stroke-linecap="round" stroke-linejoin="round"/><path d="M44 46L52 36L62 34L52 42Z" fill="#2BB04A" stroke="#1B1B1B" stroke-width="1.5" stroke-linecap="round" stroke-linejoin="round"/><path d="M188 104L192 104L191.2 40L188.8 40Z" fill="#E4DCC8" stroke="#1B1B1B" stroke-width="1.5" stroke-linecap="round" stroke-linejoin="round"/><path d="M190 40L174 42L166 50L178 45Z" fill="#2BB04A" stroke="#1B1B1B" stroke-width="1.5" stroke-linecap="round" stroke-linejoin="round"/><path d="M190 40L206 42L214 50L202 45Z" fill="#2BB04A" stroke="#1B1B1B" stroke-width="1.5" stroke-linecap="round" stroke-linejoin="round"/><path d="M190 40L182 30L172 28L182 36Z" fill="#2BB04A" stroke="#1B1B1B" stroke-width="1.5" stroke-linecap="round" stroke-linejoin="round"/><path d="M190 40L198 30L208 28L198 36Z" fill="#2BB04A" stroke="#1B1B1B" stroke-width="1.5" stroke-linecap="round" stroke-linejoin="round"/><path d="M108 64H160V102H108Z" fill="#FFD60A" stroke="#1B1B1B" stroke-width="1.5" stroke-linecap="round" stroke-linejoin="round"/><path d="M148 64H160V102H148Z" fill="#F4A700" stroke="#1B1B1B" stroke-width="1.5" stroke-linecap="round" stroke-linejoin="round"/><path d="M104 66L134 52L164 66Z" fill="#FFD60A" stroke="#1B1B1B" stroke-width="1.5" stroke-linecap="round" stroke-linejoin="round"/><path d="M104 65H164V67.6H104Z" fill="#F4A700" stroke="#1B1B1B" stroke-width="1.5" stroke-linecap="round" stroke-linejoin="round"/><path d="M126 102V87A7 7 0 0 1 140 87V102Z" fill="#5B2A86" stroke="#1B1B1B" stroke-width="1.5" stroke-linecap="round" stroke-linejoin="round"/><path d="M130 72A3 3 0 1 1 136 72A3 3 0 1 1 130 72Z" fill="#1D7BEF" stroke="#1B1B1B" stroke-width="1.5" stroke-linecap="round" stroke-linejoin="round"/><path d="M76 34H102V102H76Z" fill="#E4572E" stroke="#1B1B1B" stroke-width="1.5" stroke-linecap="round" stroke-linejoin="round"/><path d="M95 34H102V102H95Z" fill="#B83E1C" stroke="#1B1B1B" stroke-width="1.5" stroke-linecap="round" stroke-linejoin="round"/><path d="M73 32H105V35H73Z" fill="#E5007E" stroke="#1B1B1B" stroke-width="1.5" stroke-linecap="round" stroke-linejoin="round"/><path d="M73 60H105V63H73Z" fill="#E5007E" stroke="#1B1B1B" stroke-width="1.5" stroke-linecap="round" stroke-linejoin="round"/><path d="M80 18H98V33H80Z" fill="#E4572E" stroke="#1B1B1B" stroke-width="1.5" stroke-linecap="round" stroke-linejoin="round"/><path d="M93 18H98V33H93Z" fill="#B83E1C" stroke="#1B1B1B" stroke-width="1.5" stroke-linecap="round" stroke-linejoin="round"/><path d="M78 18L89 9L100 18Z" fill="#E63946" stroke="#1B1B1B" stroke-width="1.5" stroke-linecap="round" stroke-linejoin="round"/><path d="M85 31V25A4 4 0 0 1 93 25V31Z" fill="#5B2A86" stroke="#1B1B1B" stroke-width="1.5" stroke-linecap="round" stroke-linejoin="round"/><path d="M80 54V43A3 3 0 0 1 86 43V54Z" fill="#5B2A86" stroke="#1B1B1B" stroke-width="1.5" stroke-linecap="round" stroke-linejoin="round"/><path d="M92 54V43A3 3 0 0 1 98 43V54Z" fill="#5B2A86" stroke="#1B1B1B" stroke-width="1.5" stroke-linecap="round" stroke-linejoin="round"/><path d="M78 66L84 72M84 66L90 72M90 66L96 72M96 66L102 72M84 66L78 72M90 66L84 72M96 66L90 72M102 66L96 72M78 76L84 82M84 76L90 82M90 76L96 82M96 76L102 82M84 76L78 82M90 76L84 82M96 76L90 82M102 76L96 82" fill="none" stroke="#1B1B1B" stroke-width="0.9" stroke-linecap="round" stroke-linejoin="round"/><path d="M84 102V93A5 5 0 0 1 94 93V102Z" fill="#5B2A86" stroke="#1B1B1B" stroke-width="1.5" stroke-linecap="round" stroke-linejoin="round"/><path d="M0 100H200V112H0Z" fill="#FFB238" stroke="#1B1B1B" stroke-width="1.5" stroke-linecap="round" stroke-linejoin="round"/><path d="M0 106L200 106" fill="none" stroke="#D97C0B" stroke-width="1" stroke-linecap="round" stroke-linejoin="round"/><path d="M0 112H200V131H0Z" fill="#1D7BEF" stroke="#1B1B1B" stroke-width="1.5" stroke-linecap="round" stroke-linejoin="round"/><path d="M10 120L24 120M90 124L104 124M170 120L184 120" fill="none" stroke="#FFFFFF" stroke-width="1.3" stroke-linecap="round" stroke-linejoin="round"/><path d="M148 92H172V104H148Z" fill="#F7D9A8" stroke="#1B1B1B" stroke-width="1.5" stroke-linecap="round" stroke-linejoin="round"/><path d="M166 92H172V104H166Z" fill="#E7B97A" stroke="#1B1B1B" stroke-width="1.5" stroke-linecap="round" stroke-linejoin="round"/><path d="M151 92L169 92L167 74L155 74Z" fill="#F4A700" stroke="#1B1B1B" stroke-width="1.5" stroke-linecap="round" stroke-linejoin="round"/><path d="M154 70A7 7 0 1 1 168 70A7 7 0 1 1 154 70Z" fill="#F4A700" stroke="#1B1B1B" stroke-width="1.5" stroke-linecap="round" stroke-linejoin="round"/><path d="M155 66L156 58L160 64Z" fill="#F4A700" stroke="#1B1B1B" stroke-width="1.5" stroke-linecap="round" stroke-linejoin="round"/><path d="M162 64L166 58L167 66Z" fill="#F4A700" stroke="#1B1B1B" stroke-width="1.5" stroke-linecap="round" stroke-linejoin="round"/><path d="M158 69L158 70.5M164 69L164 70.5" fill="none" stroke="#1B1B1B" stroke-width="1.4" stroke-linecap="round" stroke-linejoin="round"/><path d="M169 90L176 88L178 80L175 79L174 86L168 87Z" fill="#F4A700" stroke="#1B1B1B" stroke-width="1.5" stroke-linecap="round" stroke-linejoin="round"/><path d="M0 0H200V9H0Z" fill="#1B1B1B"/><path d="M0 0L5 7.5L10 0Z" fill="#E63946"/><path d="M10 0L15 7.5L20 0Z" fill="#FFC21A"/><path d="M20 0L25 7.5L30 0Z" fill="#1D7BEF"/><path d="M30 0L35 7.5L40 0Z" fill="#2BB04A"/><path d="M40 0L45 7.5L50 0Z" fill="#E5007E"/><path d="M50 0L55 7.5L60 0Z" fill="#E63946"/><path d="M60 0L65 7.5L70 0Z" fill="#FFC21A"/><path d="M70 0L75 7.5L80 0Z" fill="#1D7BEF"/><path d="M80 0L85 7.5L90 0Z" fill="#2BB04A"/><path d="M90 0L95 7.5L100 0Z" fill="#E5007E"/><path d="M100 0L105 7.5L110 0Z" fill="#E63946"/><path d="M110 0L115 7.5L120 0Z" fill="#FFC21A"/><path d="M120 0L125 7.5L130 0Z" fill="#1D7BEF"/><path d="M130 0L135 7.5L140 0Z" fill="#2BB04A"/><path d="M140 0L145 7.5L150 0Z" fill="#E5007E"/><path d="M150 0L155 7.5L160 0Z" fill="#E63946"/><path d="M160 0L165 7.5L170 0Z" fill="#FFC21A"/><path d="M170 0L175 7.5L180 0Z" fill="#1D7BEF"/><path d="M180 0L185 7.5L190 0Z" fill="#2BB04A"/><path d="M190 0L195 7.5L200 0Z" fill="#E5007E"/><path d="M0 131H200V140H0Z" fill="#1B1B1B"/><path d="M0 140L5 132.5L10 140Z" fill="#E63946"/><path d="M10 140L15 132.5L20 140Z" fill="#FFC21A"/><path d="M20 140L25 132.5L30 140Z" fill="#1D7BEF"/><path d="M30 140L35 132.5L40 140Z" fill="#2BB04A"/><path d="M40 140L45 132.5L50 140Z" fill="#E5007E"/><path d="M50 140L55 132.5L60 140Z" fill="#E63946"/><path d="M60 140L65 132.5L70 140Z" fill="#FFC21A"/><path d="M70 140L75 132.5L80 140Z" fill="#1D7BEF"/><path d="M80 140L85 132.5L90 140Z" fill="#2BB04A"/><path d="M90 140L95 132.5L100 140Z" fill="#E5007E"/><path d="M100 140L105 132.5L110 140Z" fill="#E63946"/><path d="M110 140L115 132.5L120 140Z" fill="#FFC21A"/><path d="M120 140L125 132.5L130 140Z" fill="#1D7BEF"/><path d="M130 140L135 132.5L140 140Z" fill="#2BB04A"/><path d="M140 140L145 132.5L150 140Z" fill="#E5007E"/><path d="M150 140L155 132.5L160 140Z" fill="#E63946"/><path d="M160 140L165 132.5L170 140Z" fill="#FFC21A"/><path d="M170 140L175 132.5L180 140Z" fill="#1D7BEF"/><path d="M180 140L185 132.5L190 140Z" fill="#2BB04A"/><path d="M190 140L195 132.5L200 140Z" fill="#E5007E"/></svg>
