<svg xmlns="http://www.w3.org/2000/svg" viewBox="0 0 200 140" width="800" height="560"><path d="M0 0H200V140H0Z" fill="#38C6F4" stroke="#1B1B1B" stroke-width="1.5" stroke-linecap="round" stroke-linejoin="round"/><path d="M37.42 18.77L43 20L37.42 21.23Z" fill="#FFC21A" stroke="#1B1B1B" stroke-width="1.5" stroke-linecap="round" stroke-linejoin="round"/><path d="M36.77 23.64L40.99 27.5L35.54 25.78Z" fill="#FFC21A" stroke="#1B1B1B" stroke-width="1.5" stroke-linecap="round" stroke-linejoin="round"/><path d="M33.78 27.54L35.5 32.99L31.64 28.77Z" fill="#FFC21A" stroke="#1B1B1B" stroke-width="1.5" stroke-linecap="round" stroke-linejoin="round"/><path d="M29.23 29.42L28 35L26.77 29.42Z" fill="#FFC21A" stroke="#1B1B1B" stroke-width="1.5" stroke-linecap="round" stroke-linejoin="round"/><path d="M24.36 28.77L20.5 32.99L22.22 27.54Z" fill="#FFC21A" stroke="#1B1B1B" stroke-width="1.5" stroke-linecap="round" stroke-linejoin="round"/><path d="M20.46 25.78L15.01 27.5L19.23 23.64Z" fill="#FFC21A" stroke="#1B1B1B" stroke-width="1.5" stroke-linecap="round" stroke-linejoin="round"/><path d="M18.58 21.23L13 20L18.58 18.77Z" fill="#FFC21A" stroke="#1B1B1B" stroke-width="1.5" stroke-linecap="round" stroke-linejoin="round"/><path d="M19.23 16.36L15.01 12.5L20.46 14.22Z" fill="#FFC21A" stroke="#1B1B1B" stroke-width="1.5" stroke-linecap="round" stroke-linejoin="round"/><path d="M22.22 12.46L20.5 7.01L24.36 11.23Z" fill="#FFC21A" stroke="#1B1B1B" stroke-width="1.5" stroke-linecap="round" stroke-linejoin="round"/><path d="M26.77 10.58L28 5L29.23 10.58Z" fill="#FFC21A" stroke="#1B1B1B" stroke-width="1.5" stroke-linecap="round" stroke-linejoin="round"/><path d="M31.64 11.23L35.5 7.01L33.78 12.46Z" fill="#FFC21A" stroke="#1B1B1B" stroke-width="1.5" stroke-linecap="round" stroke-linejoin="round"/><path d="M35.54 14.22L40.99 12.5L36.77 16.36Z" fill="#FFC21A" stroke="#1B1B1B" stroke-width="1.5" stroke-linecap="round" stroke-linejoin="round"/><path d="M20 20A8 8 0 1 1 36 20A8 8 0 1 1 20 20Z" fill="#FFC21A" stroke="#1B1B1B" stroke-width="1.5" stroke-linecap="round" stroke-linejoin="round"/><path d="M12 30H188V102H12Z" fill="#5B2A86" stroke="#1B1B1B" stroke-width="1.5" stroke-linecap="round" stroke-linejoin="round"/><path d="M8 28H192V33H8Z" fill="#FFD60A" stroke="#1B1B1B" stroke-width="1.5" stroke-linecap="round" stroke-linejoin="round"/><path d="M84 28L82 13L92 21L100 11L108 21L118 13L116 28Z" fill="#FFD60A" stroke="#1B1B1B" stroke-width="1.5" stroke-linecap="round" stroke-linejoin="round"/><path d="M89.4 24A2.6 2.6 0 1 1 94.6 24A2.6 2.6 0 1 1 89.4 24Z" fill="#E63946" stroke="#1B1B1B" stroke-width="1.5" stroke-linecap="round" stroke-linejoin="round"/><path d="M97.4 22A2.6 2.6 0 1 1 102.6 22A2.6 2.6 0 1 1 97.4 22Z" fill="#1D7BEF" stroke="#1B1B1B" stroke-width="1.5" stroke-linecap="round" stroke-linejoin="round"/><path d="M105.4 24A2.6 2.6 0 1 1 110.6 24A2.6 2.6 0 1 1 105.4 24Z" fill="#2BB04A" stroke="#1B1B1B" stroke-width="1.5" stroke-linecap="round" stroke-linejoin="round"/><path d="M12 36L17.5 44L28.5 36L39.5 44L50.5 36L61.5 44L72.5 36L83.5 44L94.5 36L105.5 44L116.5 36L127.5 44L138.5 36L149.5 44L160.5 36L171.5 44L182.5 36L188 36Z" fill="#E5007E" stroke="#1B1B1B" stroke-width="1.5" stroke-linecap="round" stroke-linejoin="round"/><path d="M28 48H172V94H28Z" fill="#3A3340" stroke="#1B1B1B" stroke-width="1.5" stroke-linecap="round" stroke-linejoin="round"/><path d="M26 46H174V49H26Z" fill="#FFD60A" stroke="#1B1B1B" stroke-width="1.5" stroke-linecap="round" stroke-linejoin="round"/><path d="M28 92L48 92L45 85L31 85Z" fill="#FFD60A" stroke="#1B1B1B" stroke-width="1.5" stroke-linecap="round" stroke-linejoin="round"/><path d="M34 88L40 88" fill="none" stroke="#FFFFFF" stroke-width="1.3" stroke-linecap="round" stroke-linejoin="round"/><path d="M50 92L70 92L67 85L53 85Z" fill="#FFD60A" stroke="#1B1B1B" stroke-width="1.5" stroke-linecap="round" stroke-linejoin="round"/><path d="M56 88L62 88" fill="none" stroke="#FFFFFF" stroke-width="1.3" stroke-linecap="round" stroke-linejoin="round"/><path d="M39 85L59 85L56 78L42 78Z" fill="#FFD60A" stroke="#1B1B1B" stroke-width="1.5" stroke-linecap="round" stroke-linejoin="round"/><path d="M45 81L51 81" fill="none" stroke="#FFFFFF" stroke-width="1.3" stroke-linecap="round" stroke-linejoin="round"/><path d="M130 92L150 92L147 85L133 85Z" fill="#FFD60A" stroke="#1B1B1B" stroke-width="1.5" stroke-linecap="round" stroke-linejoin="round"/><path d="M136 88L142 88" fill="none" stroke="#FFFFFF" stroke-width="1.3" stroke-linecap="round" stroke-linejoin="round"/><path d="M152 92L172 92L169 85L155 85Z" fill="#FFD60A" stroke="#1B1B1B" stroke-width="1.5" stroke-linecap="round" stroke-linejoin="round"/><path d="M158 88L164 88" fill="none" stroke="#FFFFFF" stroke-width="1.3" stroke-linecap="round" stroke-linejoin="round"/><path d="M141 85L161 85L158 78L144 78Z" fill="#FFD60A" stroke="#1B1B1B" stroke-width="1.5" stroke-linecap="round" stroke-linejoin="round"/><path d="M147 81L153 81" fill="none" stroke="#FFFFFF" stroke-width="1.3" stroke-linecap="round" stroke-linejoin="round"/><path d="M87 80A13 13 0 1 1 113 80A13 13 0 1 1 87 80Z" fill="#FFD60A" stroke="#1B1B1B" stroke-width="1.5" stroke-linecap="round" stroke-linejoin="round"/><path d="M91.5 80A8.5 8.5 0 1 1 108.5 80A8.5 8.5 0 1 1 91.5 80Z" fill="#3A3340" stroke="#1B1B1B" stroke-width="1.5" stroke-linecap="round" stroke-linejoin="round"/><path d="M94 66L106 66L103 72L97 72Z" fill="#F4A700" stroke="#1B1B1B" stroke-width="1.5" stroke-linecap="round" stroke-linejoin="round"/><path d="M90 54L110 54L118 61L82 61Z" fill="#8EE8D8" stroke="#1B1B1B" stroke-width="1.5" stroke-linecap="round" stroke-linejoin="round"/><path d="M82 61L118 61L100 77Z" fill="#2EC4B6" stroke="#1B1B1B" stroke-width="1.5" stroke-linecap="round" stroke-linejoin="round"/><path d="M96 54L92 61M104 54L108 61M92 61L100 77M108 61L100 77" fill="none" stroke="#FFFFFF" stroke-width="1.3" stroke-linecap="round" stroke-linejoin="round"/><path d="M124 47L125.29 52.22L130.66 51.84L126.09 54.68L128.11 59.66L124 56.2L119.89 59.66L121.91 54.68L117.34 51.84L122.71 52.22Z" fill="#FFFFFF" stroke="#1B1B1B" stroke-width="1.5" stroke-linecap="round" stroke-linejoin="round"/><path d="M76 64L77.18 68.38L81.71 68.15L77.9 70.62L79.53 74.85L76 72L72.47 74.85L74.1 70.62L70.29 68.15L74.82 68.38Z" fill="#FFFFFF" stroke="#1B1B1B" stroke-width="1.5" stroke-linecap="round" stroke-linejoin="round"/><path d="M0 102H200V112H0Z" fill="#F7D9A8" stroke="#1B1B1B" stroke-width="1.5" stroke-linecap="round" stroke-linejoin="round"/><path d="M0 110H200V112H0Z" fill="#E7B97A" stroke="#1B1B1B" stroke-width="1.5" stroke-linecap="round" stroke-linejoin="round"/><path d="M0 112H200V140H0Z" fill="#C3C6D6" stroke="#1B1B1B" stroke-width="1.5" stroke-linecap="round" stroke-linejoin="round"/><path d="M6 122L18 122M34 122L46 122M62 122L74 122M90 122L102 122M118 122L130 122M146 122L158 122M174 122L186 122" fill="none" stroke="#FFFFFF" stroke-width="2.2" stroke-linecap="round" stroke-linejoin="round"/><path d="M32 116L38 108L56 108L62 116Z" fill="#E63946" stroke="#1B1B1B" stroke-width="1.5" stroke-linecap="round" stroke-linejoin="round"/><path d="M36 116L40 110L46 110L46 116Z" fill="#1D7BEF" stroke="#1B1B1B" stroke-width="1.5" stroke-linecap="round" stroke-linejoin="round"/><path d="M49 116L49 110L55 110L59 116Z" fill="#1D7BEF" stroke="#1B1B1B" stroke-width="1.5" stroke-linecap="round" stroke-linejoin="round"/><path d="M26 115H68A4 4 0 0 1 72 119V124A4 4 0 0 1 68 128H26A4 4 0 0 1 22 124V119A4 4 0 0 1 26 115Z" fill="#E63946" stroke="#1B1B1B" stroke-width="1.5" stroke-linecap="round" stroke-linejoin="round"/><path d="M29 128A5 5 0 1 1 39 128A5 5 0 1 1 29 128Z" fill="#1B1B1B" stroke="#1B1B1B" stroke-width="1.5" stroke-linecap="round" stroke-linejoin="round"/><path d="M55 128A5 5 0 1 1 65 128A5 5 0 1 1 55 128Z" fill="#1B1B1B" stroke="#1B1B1B" stroke-width="1.5" stroke-linecap="round" stroke-linejoin="round"/><path d="M32 128A2 2 0 1 1 36 128A2 2 0 1 1 32 128Z" fill="#C3C6D6" stroke="#1B1B1B" stroke-width="1.5" stroke-linecap="round" stroke-linejoin="round"/><path d="M58 128A2 2 0 1 1 62 128A2 2 0 1 1 58 128Z" fill="#C3C6D6" stroke="#1B1B1B" stroke-width="1.5" stroke-linecap="round" stroke-linejoin="round"/><path d="M68 118H72V121H68Z" fill="#FFD60A" stroke="#1B1B1B" stroke-width="1.5" stroke-linecap="round" stroke-linejoin="round"/><path d="M138 116L144 108L162 108L168 116Z" fill="#FFD60A" stroke="#1B1B1B" stroke-width="1.5" stroke-linecap="round" stroke-linejoin="round"/><path d="M142 116L146 110L152 110L152 116Z" fill="#1D7BEF" stroke="#1B1B1B" stroke-width="1.5" stroke-linecap="round" stroke-linejoin="round"/><path d="M155 116L155 110L161 110L165 116Z" fill="#1D7BEF" stroke="#1B1B1B" stroke-width="1.5" stroke-linecap="round" stroke-linejoin="round"/><path d="M132 115H174A4 4 0 0 1 178 119V124A4 4 0 0 1 174 128H132A4 4 0 0 1 128 124V119A4 4 0 0 1 132 115Z" fill="#FFD60A" stroke="#1B1B1B" stroke-width="1.5" stroke-linecap="round" stroke-linejoin="round"/><path d="M135 128A5 5 0 1 1 145 128A5 5 0 1 1 135 128Z" fill="#1B1B1B" stroke="#1B1B1B" stroke-width="1.5" stroke-linecap="round" stroke-linejoin="round"/><path d="M161 128A5 5 0 1 1 171 128A5 5 0 1 1 161 128Z" fill="#1B1B1B" stroke="#1B1B1B" stroke-width="1.5" stroke-linecap="round" stroke-linejoin="round"/><path d="M138 128A2 2 0 1 1 142 128A2 2 0 1 1 138 128Z" fill="#C3C6D6" stroke="#1B1B1B" stroke-width="1.5" stroke-linecap="round" stroke-linejoin="round"/><path d="M164 128A2 2 0 1 1 168 128A2 2 0 1 1 164 128Z" fill="#C3C6D6" stroke="#1B1B1B" stroke-width="1.5" stroke-linecap="round" stroke-linejoin="round"/><path d="M174 118H178V121H174Z" fill="#FFD60A" stroke="#1B1B1B" stroke-width="1.5" stroke-linecap="round" stroke-linejoin="round"/><path d="M0 0H200V9H0Z" fill="#1B1B1B"/><path d="M0 0L5 7.5L10 0Z" fill="#E63946"/><path d="M10 0L15 7.5L20 0Z" fill="#FFC21A"/><path d="M20 0L25 7.5L30 0Z" fill="#1D7BEF"/><path d="M30 0L35 7.5L40 0Z" fill="#2BB04A"/><path d="M40 0L45 7.5L50 0Z" fill="#E5007E"/><path d="M50 0L55 7.5L60 0Z" fill="#E63946"/><path d="M60 0L65 7.5L70 0Z" fill="#FFC21A"/><path d="M70 0L75 7.5L80 0Z" fill="#1D7BEF"/><path d="M80 0L85 7.5L90 0Z" fill="#2BB04A"/><path d="M90 0L95 7.5L100 0Z" fill="#E5007E"/><path d="M100 0L105 7.5L110 0Z" fill="#E63946"/><path d="M110 0L115 7.5L120 0Z" fill="#FFC21A"/><path d="M120 0L125 7.5L130 0Z" fill="#1D7BEF"/><path d="M130 0L135 7.5L140 0Z" fill="#2BB04A"/><path d="M140 0L145 7.5L150 0Z" fill="#E5007E"/><path d="M150 0L155 7.5L160 0Z" fill="#E63946"/><path d="M160 0L165 7.5L170 0Z" fill="#FFC21A"/><path d="M170 0L175 7.5L180 0Z" fill="#1D7BEF"/><path d="M180 0L185 7.5L190 0Z" fill="#2BB04A"/><path d="M190 0L195 7.5L200 0Z" fill="#E5007E"/><path d="M0 131H200V140H0Z" fill="#1B1B1B"/><path d="M0 140L5 132.5L10 140Z" fill="#E63946"/><path d="M10 140L15 132.5L20 140Z" fill="#FFC21A"/><path d="M20 140L25 132.5L30 140Z" fill="#1D7BEF"/><path d="M30 140L35 132.5L40 140Z" fill="#2BB04A"/><path d="M40 140L45 132.5L50 140Z" fill="#E5007E"/><path d="M50 140L55 132.5L60 140Z" fill="#E63946"/><path d="M60 140L65 132.5L70 140Z" fill="#FFC21A"/><path d="M70 140L75 132.5L80 140Z" fill="#1D7BEF"/><path d="M80 140L85 132.5L90 140Z" fill="#2BB04A"/><path d="M90 140L95 132.5L100 140Z" fill="#E5007E"/><path d="M100 140L105 132.5L110 140Z" fill="#E63946"/><path d="M110 140L115 132.5L120 140Z" fill="#FFC21A"/><path d="M120 140L125 132.5L130 140Z" fill="#1D7BEF"/><path d="M130 140L135 132.5L140 140Z" fill="#2BB04A"/><path d="M140 140L145 132.5L150 140Z" fill="#E5007E"/><path d="M150 140L155 132.5L160 140Z" fill="#E63946"/><path d="M160 140L165 132.5L170 140Z" fill="#FFC21A"/><path d="M170 140L175 132.5L180 140Z" fill="#1D7BEF"/><path d="M180 140L185 132.5L190 140Z" fill="#2BB04A"/><path d="M190 140L195 132.5L200 140Z" fill="#E5007E"/></svg>
