<svg xmlns="http://www.w3.org/2000/svg" viewBox="0 0 200 140" width="800" height="560"><path d="M0 0H200V140H0Z" fill="#38C6F4" stroke="#1B1B1B" stroke-width="1.5" stroke-linecap="round" stroke-linejoin="round"/><path d="M176.41 24.64L182 26L176.41 27.36Z" fill="#FFC21A" stroke="#1B1B1B" stroke-width="1.5" stroke-linecap="round" stroke-linejoin="round"/><path d="M175.7 30.03L179.86 34L174.34 32.38Z" fill="#FFC21A" stroke="#1B1B1B" stroke-width="1.5" stroke-linecap="round" stroke-linejoin="round"/><path d="M172.38 34.34L174 39.86L170.03 35.7Z" fill="#FFC21A" stroke="#1B1B1B" stroke-width="1.5" stroke-linecap="round" stroke-linejoin="round"/><path d="M167.36 36.41L166 42L164.64 36.41Z" fill="#FFC21A" stroke="#1B1B1B" stroke-width="1.5" stroke-linecap="round" stroke-linejoin="round"/><path d="M161.97 35.7L158 39.86L159.62 34.34Z" fill="#FFC21A" stroke="#1B1B1B" stroke-width="1.5" stroke-linecap="round" stroke-linejoin="round"/><path d="M157.66 32.38L152.14 34L156.3 30.03Z" fill="#FFC21A" stroke="#1B1B1B" stroke-width="1.5" stroke-linecap="round" stroke-linejoin="round"/><path d="M155.59 27.36L150 26L155.59 24.64Z" fill="#FFC21A" stroke="#1B1B1B" stroke-width="1.5" stroke-linecap="round" stroke-linejoin="round"/><path d="M156.3 21.97L152.14 18L157.66 19.62Z" fill="#FFC21A" stroke="#1B1B1B" stroke-width="1.5" stroke-linecap="round" stroke-linejoin="round"/><path d="M159.62 17.66L158 12.14L161.97 16.3Z" fill="#FFC21A" stroke="#1B1B1B" stroke-width="1.5" stroke-linecap="round" stroke-linejoin="round"/><path d="M164.64 15.59L166 10L167.36 15.59Z" fill="#FFC21A" stroke="#1B1B1B" stroke-width="1.5" stroke-linecap="round" stroke-linejoin="round"/><path d="M170.03 16.3L174 12.14L172.38 17.66Z" fill="#FFC21A" stroke="#1B1B1B" stroke-width="1.5" stroke-linecap="round" stroke-linejoin="round"/><path d="M174.34 19.62L179.86 18L175.7 21.97Z" fill="#FFC21A" stroke="#1B1B1B" stroke-width="1.5" stroke-linecap="round" stroke-linejoin="round"/><path d="M157 26A9 9 0 1 1 175 26A9 9 0 1 1 157 26Z" fill="#FFC21A" stroke="#1B1B1B" stroke-width="1.5" stroke-linecap="round" stroke-linejoin="round"/><path d="M0 74L0 50L12 44L24 50L36 40L52 46L66 38L82 48L100 42L118 48L134 38L150 46L168 40L186 48L200 44L200 74Z" fill="#1E8A3C" stroke="#1B1B1B" stroke-width="1.5" stroke-linecap="round" stroke-linejoin="round"/><path d="M0 78L0 62L16 58L34 64L54 56L74 62L96 56L120 62L146 54L170 62L200 56L200 78Z" fill="#2BB04A" stroke="#1B1B1B" stroke-width="1.5" stroke-linecap="round" stroke-linejoin="round"/><path d="M30 76L40 76L37 34L33 34Z" fill="#8B5A2B" stroke="#1B1B1B" stroke-width="1.5" stroke-linecap="round" stroke-linejoin="round"/><path d="M14 30A10 10 0 1 1 34 30A10 10 0 1 1 14 30Z" fill="#1E8A3C" stroke="#1B1B1B" stroke-width="1.5" stroke-linecap="round" stroke-linejoin="round"/><path d="M36 30A10 10 0 1 1 56 30A10 10 0 1 1 36 30Z" fill="#1E8A3C" stroke="#1B1B1B" stroke-width="1.5" stroke-linecap="round" stroke-linejoin="round"/><path d="M24 24A11 11 0 1 1 46 24A11 11 0 1 1 24 24Z" fill="#2BB04A" stroke="#1B1B1B" stroke-width="1.5" stroke-linecap="round" stroke-linejoin="round"/><path d="M143 72H146V88H143Z" fill="#8B5A2B" stroke="#1B1B1B" stroke-width="1.5" stroke-linecap="round" stroke-linejoin="round"/><path d="M162 72H165V88H162Z" fill="#8B5A2B" stroke="#1B1B1B" stroke-width="1.5" stroke-linecap="round" stroke-linejoin="round"/><path d="M138 72H170V75H138Z" fill="#D49A5A" stroke="#1B1B1B" stroke-width="1.5" stroke-linecap="round" stroke-linejoin="round"/><path d="M140 58H168V72H140Z" fill="#E5007E" stroke="#1B1B1B" stroke-width="1.5" stroke-linecap="round" stroke-linejoin="round"/><path d="M136 60L154 48L172 60Z" fill="#EDB35C" stroke="#1B1B1B" stroke-width="1.5" stroke-linecap="round" stroke-linejoin="round"/><path d="M151 62H157V72H151Z" fill="#5B2A86" stroke="#1B1B1B" stroke-width="1.5" stroke-linecap="round" stroke-linejoin="round"/><path d="M175 72H178V88H175Z" fill="#8B5A2B" stroke="#1B1B1B" stroke-width="1.5" stroke-linecap="round" stroke-linejoin="round"/><path d="M190 72H193V88H190Z" fill="#8B5A2B" stroke="#1B1B1B" stroke-width="1.5" stroke-linecap="round" stroke-linejoin="round"/><path d="M170 72H198V75H170Z" fill="#D49A5A" stroke="#1B1B1B" stroke-width="1.5" stroke-linecap="round" stroke-linejoin="round"/><path d="M172 58H196V72H172Z" fill="#FFD60A" stroke="#1B1B1B" stroke-width="1.5" stroke-linecap="round" stroke-linejoin="round"/><path d="M168 60L184 48L200 60Z" fill="#EDB35C" stroke="#1B1B1B" stroke-width="1.5" stroke-linecap="round" stroke-linejoin="round"/><path d="M181 62H187V72H181Z" fill="#5B2A86" stroke="#1B1B1B" stroke-width="1.5" stroke-linecap="round" stroke-linejoin="round"/><path d="M0 82H200V131H0Z" fill="#155FA8" stroke="#1B1B1B" stroke-width="1.5" stroke-linecap="round" stroke-linejoin="round"/><path d="M10 96L24 96M150 98L166 98M40 120L54 120M110 126L124 126" fill="none" stroke="#FFFFFF" stroke-width="1.3" stroke-linecap="round" stroke-linejoin="round"/><path d="M78 108L84 94L96 86L110 88L120 96L124 106L118 104L112 96L102 94L92 98L86 108Z" fill="#F497B6" stroke="#1B1B1B" stroke-width="1.5" stroke-linecap="round" stroke-linejoin="round"/><path d="M118 92L126 88L124 94Z" fill="#F497B6" stroke="#1B1B1B" stroke-width="1.5" stroke-linecap="round" stroke-linejoin="round"/><path d="M96 88L100 80L104 88Z" fill="#F497B6" stroke="#1B1B1B" stroke-width="1.5" stroke-linecap="round" stroke-linejoin="round"/><path d="M78 108L72 112L82 114L86 108Z" fill="#F497B6" stroke="#1B1B1B" stroke-width="1.5" stroke-linecap="round" stroke-linejoin="round"/><path d="M114 92L114.5 92.5" fill="none" stroke="#1B1B1B" stroke-width="1.4" stroke-linecap="round" stroke-linejoin="round"/><path d="M70 110L92 110" fill="none" stroke="#FFFFFF" stroke-width="1.3" stroke-linecap="round" stroke-linejoin="round"/><path d="M14 112A12 12 0 1 1 38 112A12 12 0 1 1 14 112Z" fill="#2BB04A" stroke="#1B1B1B" stroke-width="1.5" stroke-linecap="round" stroke-linejoin="round"/><path d="M14 110.8H38V113.2H14Z" fill="#E5007E" stroke="#1B1B1B" stroke-width="1.5" stroke-linecap="round" stroke-linejoin="round"/><path d="M16.5 112A9.5 9.5 0 1 1 35.5 112A9.5 9.5 0 1 1 16.5 112Z" fill="#2BB04A" stroke="#1B1B1B" stroke-width="1.5" stroke-linecap="round" stroke-linejoin="round"/><path d="M43 124A9 9 0 1 1 61 124A9 9 0 1 1 43 124Z" fill="#2BB04A" stroke="#1B1B1B" stroke-width="1.5" stroke-linecap="round" stroke-linejoin="round"/><path d="M43 122.8H61V125.2H43Z" fill="#E5007E" stroke="#1B1B1B" stroke-width="1.5" stroke-linecap="round" stroke-linejoin="round"/><path d="M45.5 124A6.5 6.5 0 1 1 58.5 124A6.5 6.5 0 1 1 45.5 124Z" fill="#2BB04A" stroke="#1B1B1B" stroke-width="1.5" stroke-linecap="round" stroke-linejoin="round"/><path d="M147 116A13 13 0 1 1 173 116A13 13 0 1 1 147 116Z" fill="#2BB04A" stroke="#1B1B1B" stroke-width="1.5" stroke-linecap="round" stroke-linejoin="round"/><path d="M147 114.8H173V117.2H147Z" fill="#E5007E" stroke="#1B1B1B" stroke-width="1.5" stroke-linecap="round" stroke-linejoin="round"/><path d="M149.5 116A10.5 10.5 0 1 1 170.5 116A10.5 10.5 0 1 1 149.5 116Z" fill="#2BB04A" stroke="#1B1B1B" stroke-width="1.5" stroke-linecap="round" stroke-linejoin="round"/><path d="M178 126A8 8 0 1 1 194 126A8 8 0 1 1 178 126Z" fill="#2BB04A" stroke="#1B1B1B" stroke-width="1.5" stroke-linecap="round" stroke-linejoin="round"/><path d="M178 124.8H194V127.2H178Z" fill="#E5007E" stroke="#1B1B1B" stroke-width="1.5" stroke-linecap="round" stroke-linejoin="round"/><path d="M180.5 126A5.5 5.5 0 1 1 191.5 126A5.5 5.5 0 1 1 180.5 126Z" fill="#2BB04A" stroke="#1B1B1B" stroke-width="1.5" stroke-linecap="round" stroke-linejoin="round"/><path d="M96 30L108 26L118 30L108 34Z" fill="#E63946" stroke="#1B1B1B" stroke-width="1.5" stroke-linecap="round" stroke-linejoin="round"/><path d="M104 28L100 16L110 26Z" fill="#1D7BEF" stroke="#1B1B1B" stroke-width="1.5" stroke-linecap="round" stroke-linejoin="round"/><path d="M108 32L104 42L112 32Z" fill="#FFD60A" stroke="#1B1B1B" stroke-width="1.5" stroke-linecap="round" stroke-linejoin="round"/><path d="M96 30L82 38L98 32Z" fill="#E63946" stroke="#1B1B1B" stroke-width="1.5" stroke-linecap="round" stroke-linejoin="round"/><path d="M115.6 29A2.4 2.4 0 1 1 120.4 29A2.4 2.4 0 1 1 115.6 29Z" fill="#FFFFFF" stroke="#1B1B1B" stroke-width="1.5" stroke-linecap="round" stroke-linejoin="round"/><path d="M0 0H200V9H0Z" fill="#1B1B1B"/><path d="M0 0L5 7.5L10 0Z" fill="#E63946"/><path d="M10 0L15 7.5L20 0Z" fill="#FFC21A"/><path d="M20 0L25 7.5L30 0Z" fill="#1D7BEF"/><path d="M30 0L35 7.5L40 0Z" fill="#2BB04A"/><path d="M40 0L45 7.5L50 0Z" fill="#E5007E"/><path d="M50 0L55 7.5L60 0Z" fill="#E63946"/><path d="M60 0L65 7.5L70 0Z" fill="#FFC21A"/><path d="M70 0L75 7.5L80 0Z" fill="#1D7BEF"/><path d="M80 0L85 7.5L90 0Z" fill="#2BB04A"/><path d="M90 0L95 7.5L100 0Z" fill="#E5007E"/><path d="M100 0L105 7.5L110 0Z" fill="#E63946"/><path d="M110 0L115 7.5L120 0Z" fill="#FFC21A"/><path d="M120 0L125 7.5L130 0Z" fill="#1D7BEF"/><path d="M130 0L135 7.5L140 0Z" fill="#2BB04A"/><path d="M140 0L145 7.5L150 0Z" fill="#E5007E"/><path d="M150 0L155 7.5L160 0Z" fill="#E63946"/><path d="M160 0L165 7.5L170 0Z" fill="#FFC21A"/><path d="M170 0L175 7.5L180 0Z" fill="#1D7BEF"/><path d="M180 0L185 7.5L190 0Z" fill="#2BB04A"/><path d="M190 0L195 7.5L200 0Z" fill="#E5007E"/><path d="M0 131H200V140H0Z" fill="#1B1B1B"/><path d="M0 140L5 132.5L10 140Z" fill="#E63946"/><path d="M10 140L15 132.5L20 140Z" fill="#FFC21A"/><path d="M20 140L25 132.5L30 140Z" fill="#1D7BEF"/><path d="M30 140L35 132.5L40 140Z" fill="#2BB04A"/><path d="M40 140L45 132.5L50 140Z" fill="#E5007E"/><path d="M50 140L55 132.5L60 140Z" fill="#E63946"/><path d="M60 140L65 132.5L70 140Z" fill="#FFC21A"/><path d="M70 140L75 132.5L80 140Z" fill="#1D7BEF"/><path d="M80 140L85 132.5L90 140Z" fill="#2BB04A"/><path d="M90 140L95 132.5L100 140Z" fill="#E5007E"/><path d="M100 140L105 132.5L110 140Z" fill="#E63946"/><path d="M110 140L115 132.5L120 140Z" fill="#FFC21A"/><path d="M120 140L125 132.5L130 140Z" fill="#1D7BEF"/><path d="M130 140L135 132.5L140 140Z" fill="#2BB04A"/><path d="M140 140L145 132.5L150 140Z" fill="#E5007E"/><path d="M150 140L155 132.5L160 140Z" fill="#E63946"/><path d="M160 140L165 132.5L170 140Z" fill="#FFC21A"/><path d="M170 140L175 132.5L180 140Z" fill="#1D7BEF"/><path d="M180 140L185 132.5L190 140Z" fill="#2BB04A"/><path d="M190 140L195 132.5L200 140Z" fill="#E5007E"/></svg>
