<svg xmlns="http://www.w3.org/2000/svg" viewBox="0 0 48 48" width="480" height="480"><path d="M11.5 36H14.5A2.5 2.5 0 0 1 17 38.5V42.5A2.5 2.5 0 0 1 14.5 45H11.5A2.5 2.5 0 0 1 9 42.5V38.5A2.5 2.5 0 0 1 11.5 36Z" fill="#1B1B1B" stroke="#1B1B1B" stroke-width="1.4" stroke-linecap="round" stroke-linejoin="round"/><path d="M33.5 36H36.5A2.5 2.5 0 0 1 39 38.5V42.5A2.5 2.5 0 0 1 36.5 45H33.5A2.5 2.5 0 0 1 31 42.5V38.5A2.5 2.5 0 0 1 33.5 36Z" fill="#1B1B1B" stroke="#1B1B1B" stroke-width="1.4" stroke-linecap="round" stroke-linejoin="round"/><path d="M11 5H16A2 2 0 0 1 18 7V11A2 2 0 0 1 16 13H11A2 2 0 0 1 9 11V7A2 2 0 0 1 11 5Z" fill="#D9622B" stroke="#1B1B1B" stroke-width="1.4" stroke-linecap="round" stroke-linejoin="round"/><path d="M21.5 3.5H26.5A2 2 0 0 1 28.5 5.5V11A2 2 0 0 1 26.5 13H21.5A2 2 0 0 1 19.5 11V5.5A2 2 0 0 1 21.5 3.5Z" fill="#2BB04A" stroke="#1B1B1B" stroke-width="1.4" stroke-linecap="round" stroke-linejoin="round"/><path d="M32 6H37A2 2 0 0 1 39 8V11A2 2 0 0 1 37 13H32A2 2 0 0 1 30 11V8A2 2 0 0 1 32 6Z" fill="#1D7BEF" stroke="#1B1B1B" stroke-width="1.4" stroke-linecap="round" stroke-linejoin="round"/><path d="M5.5 12H42.5V16.5H5.5Z" fill="#E63946" stroke="#1B1B1B" stroke-width="1.4" stroke-linecap="round" stroke-linejoin="round"/><path d="M7.5 16.5H40.5V25.5H7.5Z" fill="#FFD60A" stroke="#1B1B1B" stroke-width="1.4" stroke-linecap="round" stroke-linejoin="round"/><path d="M10.5 17.8H37.5V24.2H10.5Z" fill="#1D7BEF" stroke="#1B1B1B" stroke-width="1.4" stroke-linecap="round" stroke-linejoin="round"/><path d="M24 17.8L24 24.2" fill="none" stroke="#1B1B1B" stroke-width="1.5" stroke-linecap="round" stroke-linejoin="round"/><path d="M9.5 25.5H38.5A2 2 0 0 1 40.5 27.5V35.5A2 2 0 0 1 38.5 37.5H9.5A2 2 0 0 1 7.5 35.5V27.5A2 2 0 0 1 9.5 25.5Z" fill="#E5007E" stroke="#1B1B1B" stroke-width="1.4" stroke-linecap="round" stroke-linejoin="round"/><path d="M9.8 30.5A3.2 3.2 0 1 1 16.2 30.5A3.2 3.2 0 1 1 9.8 30.5Z" fill="#FFD60A" stroke="#1B1B1B" stroke-width="1.4" stroke-linecap="round" stroke-linejoin="round"/><path d="M31.8 30.5A3.2 3.2 0 1 1 38.2 30.5A3.2 3.2 0 1 1 31.8 30.5Z" fill="#FFD60A" stroke="#1B1B1B" stroke-width="1.4" stroke-linecap="round" stroke-linejoin="round"/><path d="M19 27.5H29V35.5H19Z" fill="#C3C6D6" stroke="#1B1B1B" stroke-width="1.4" stroke-linecap="round" stroke-linejoin="round"/><path d="M21.5 28.5L21.5 34.5M24 28.5L24 34.5M26.5 28.5L26.5 34.5" fill="none" stroke="#1B1B1B" stroke-width="1.4" stroke-linecap="round" stroke-linejoin="round"/><path d="M6.5 36.5H41.5A1.5 1.5 0 0 1 43 38V39A1.5 1.5 0 0 1 41.5 40.5H6.5A1.5 1.5 0 0 1 5 39V38A1.5 1.5 0 0 1 6.5 36.5Z" fill="#C3C6D6" stroke="#1B1B1B" stroke-width="1.4" stroke-linecap="round" stroke-linejoin="round"/></svg>
