<svg xmlns="http://www.w3.org/2000/svg" viewBox="0 0 48 48" width="480" height="480"><path d="M12 32L5.5 43L10 43L15 34Z" fill="#1E8A3C" stroke="#1B1B1B" stroke-width="1.4" stroke-linecap="round" stroke-linejoin="round"/><path d="M10 30L2.5 38.5L6.5 40.5L13 33Z" fill="#2BB04A" stroke="#1B1B1B" stroke-width="1.4" stroke-linecap="round" stroke-linejoin="round"/><path d="M10.5 31Q16 23.5 26 21.5Q31.5 21.5 31.5 27Q30.5 33.5 22 35.5Q13.5 36.5 10.5 31Z" fill="#2BB04A" stroke="#1B1B1B" stroke-width="1.4" stroke-linecap="round" stroke-linejoin="round"/><path d="M37 19L46.5 16.5L37.5 21.8Z" fill="#3A3340" stroke="#1B1B1B" stroke-width="1.4" stroke-linecap="round" stroke-linejoin="round"/><path d="M25.5 21A6.5 6.5 0 1 1 38.5 21A6.5 6.5 0 1 1 25.5 21Z" fill="#2BB04A" stroke="#1B1B1B" stroke-width="1.4" stroke-linecap="round" stroke-linejoin="round"/><path d="M27.2 23.6Q31.5 30.5 37.2 24.2Q32 26.5 27.2 23.6Z" fill="#E5007E" stroke="#1B1B1B" stroke-width="1.4" stroke-linecap="round" stroke-linejoin="round"/><path d="M18 26Q12.5 10 23.5 3.5Q28 14 25 26Z" fill="#2EC4B6" stroke="#1B1B1B" stroke-width="1.4" stroke-linecap="round" stroke-linejoin="round"/><path d="M31.9 19.4A1.7 1.7 0 1 1 35.3 19.4A1.7 1.7 0 1 1 31.9 19.4Z" fill="#1B1B1B" stroke="#1B1B1B" stroke-width="1.4" stroke-linecap="round" stroke-linejoin="round"/></svg>
