<svg xmlns="http://www.w3.org/2000/svg" viewBox="0 0 48 48" width="480" height="480"><path d="M13.5 33Q24 39.5 34.5 33L24 46.5Z" fill="#E63946" stroke="#1B1B1B" stroke-width="1.4" stroke-linecap="round" stroke-linejoin="round"/><path d="M24 8Q37 8 37 22Q37 35 24 38Q11 35 11 22Q11 8 24 8Z" fill="#D49A5A" stroke="#1B1B1B" stroke-width="1.4" stroke-linecap="round" stroke-linejoin="round"/><path d="M24.7 18.5A4.8 4.8 0 1 1 34.3 18.5A4.8 4.8 0 1 1 24.7 18.5Z" fill="#8B5A2B" stroke="#1B1B1B" stroke-width="1.4" stroke-linecap="round" stroke-linejoin="round"/><path d="M13 11Q4 12.5 5.5 27.5Q9 30.5 13.5 24Z" fill="#8B5A2B" stroke="#1B1B1B" stroke-width="1.4" stroke-linecap="round" stroke-linejoin="round"/><path d="M35 11Q44 12.5 42.5 27.5Q39 30.5 34.5 24Z" fill="#8B5A2B" stroke="#1B1B1B" stroke-width="1.4" stroke-linecap="round" stroke-linejoin="round"/><path d="M17 29.5Q17 23 24 23Q31 23 31 29.5Q31 36 24 37Q17 36 17 29.5Z" fill="#E4DCC8" stroke="#1B1B1B" stroke-width="1.4" stroke-linecap="round" stroke-linejoin="round"/><path d="M22 32.5Q24 38 26 32.5Z" fill="#E63946" stroke="#1B1B1B" stroke-width="1.4" stroke-linecap="round" stroke-linejoin="round"/><path d="M21 25.3H27Q27 28.8 24 29.4Q21 28.8 21 25.3Z" fill="#1B1B1B" stroke="#1B1B1B" stroke-width="1.4" stroke-linecap="round" stroke-linejoin="round"/><path d="M24 29.4V31.6M20.5 31Q22.5 33.6 24 31.6Q25.5 33.6 27.5 31" fill="none" stroke="#1B1B1B" stroke-width="1.4" stroke-linecap="round" stroke-linejoin="round"/><path d="M16.9 19A2.1 2.1 0 1 1 21.1 19A2.1 2.1 0 1 1 16.9 19Z" fill="#1B1B1B" stroke="#1B1B1B" stroke-width="1.4" stroke-linecap="round" stroke-linejoin="round"/><path d="M27.4 19A2.1 2.1 0 1 1 31.6 19A2.1 2.1 0 1 1 27.4 19Z" fill="#1B1B1B" stroke="#1B1B1B" stroke-width="1.4" stroke-linecap="round" stroke-linejoin="round"/><path d="M18.3 18.2L18.35 18.2M28.8 18.2L28.85 18.2" fill="none" stroke="#FFFFFF" stroke-width="1.3" stroke-linecap="round" stroke-linejoin="round"/></svg>
