<svg xmlns="http://www.w3.org/2000/svg" viewBox="0 0 48 48" width="480" height="480"><path d="M3 32A21 8 0 1 1 45 32A21 8 0 1 1 3 32Z" fill="#E4DCC8" stroke="#1B1B1B" stroke-width="1.4" stroke-linecap="round" stroke-linejoin="round"/><path d="M7 32A17 5.6 0 0 0 41 32M11 32A13 3.9 0 0 0 37 32" fill="none" stroke="#1B1B1B" stroke-width="1.4" stroke-linecap="round" stroke-linejoin="round"/><path d="M14 32V19Q14 10 24 10Q34 10 34 19V32Q24 35.5 14 32Z" fill="#E4DCC8" stroke="#1B1B1B" stroke-width="1.4" stroke-linecap="round" stroke-linejoin="round"/><path d="M14 20.5Q24 23 34 20.5V24Q24 26.5 14 24Z" fill="#3A3340" stroke="#1B1B1B" stroke-width="1.4" stroke-linecap="round" stroke-linejoin="round"/><path d="M14 27Q24 29.5 34 27V30.5Q24 33 14 30.5Z" fill="#3A3340" stroke="#1B1B1B" stroke-width="1.4" stroke-linecap="round" stroke-linejoin="round"/><path d="M16 14.5Q24 17 32 14.5" fill="none" stroke="#1B1B1B" stroke-width="1.4" stroke-linecap="round" stroke-linejoin="round"/></svg>
