<svg xmlns="http://www.w3.org/2000/svg" viewBox="0 0 200 140" width="800" height="560"><path d="M0 0H200V140H0Z" fill="#38C6F4" stroke="#1B1B1B" stroke-width="1.5" stroke-linecap="round" stroke-linejoin="round"/><path d="M0 104H200V131H0Z" fill="#FFB238" stroke="#1B1B1B" stroke-width="1.5" stroke-linecap="round" stroke-linejoin="round"/><path d="M0 114L200 114M0 124L200 124" fill="none" stroke="#D97C0B" stroke-width="1" stroke-linecap="round" stroke-linejoin="round"/><path d="M60 24L61.65 27.73L65.71 28.15L62.66 30.87L63.53 34.85L60 32.8L56.47 34.85L57.34 30.87L54.29 28.15L58.35 27.73Z" fill="#E63946" stroke="#1B1B1B" stroke-width="1.5" stroke-linecap="round" stroke-linejoin="round"/><path d="M140 20L141.65 23.73L145.71 24.15L142.66 26.87L143.53 30.85L140 28.8L136.47 30.85L137.34 26.87L134.29 24.15L138.35 23.73Z" fill="#FFD60A" stroke="#1B1B1B" stroke-width="1.5" stroke-linecap="round" stroke-linejoin="round"/><path d="M40 54L41.65 57.73L45.71 58.15L42.66 60.87L43.53 64.85L40 62.8L36.47 64.85L37.34 60.87L34.29 58.15L38.35 57.73Z" fill="#2BB04A" stroke="#1B1B1B" stroke-width="1.5" stroke-linecap="round" stroke-linejoin="round"/><path d="M166 50L167.65 53.73L171.71 54.15L168.66 56.87L169.53 60.85L166 58.8L162.47 60.85L163.34 56.87L160.29 54.15L164.35 53.73Z" fill="#E5007E" stroke="#1B1B1B" stroke-width="1.5" stroke-linecap="round" stroke-linejoin="round"/><path d="M100 12L101.65 15.73L105.71 16.15L102.66 18.87L103.53 22.85L100 20.8L96.47 22.85L97.34 18.87L94.29 16.15L98.35 15.73Z" fill="#1D7BEF" stroke="#1B1B1B" stroke-width="1.5" stroke-linecap="round" stroke-linejoin="round"/><path d="M76 42L77.65 45.73L81.71 46.15L78.66 48.87L79.53 52.85L76 50.8L72.47 52.85L73.34 48.87L70.29 46.15L74.35 45.73Z" fill="#FFD60A" stroke="#1B1B1B" stroke-width="1.5" stroke-linecap="round" stroke-linejoin="round"/><path d="M128 40L129.65 43.73L133.71 44.15L130.66 46.87L131.53 50.85L128 48.8L124.47 50.85L125.34 46.87L122.29 44.15L126.35 43.73Z" fill="#E63946" stroke="#1B1B1B" stroke-width="1.5" stroke-linecap="round" stroke-linejoin="round"/><path d="M24 28L25.65 31.73L29.71 32.15L26.66 34.87L27.53 38.85L24 36.8L20.47 38.85L21.34 34.87L18.29 32.15L22.35 31.73Z" fill="#E5007E" stroke="#1B1B1B" stroke-width="1.5" stroke-linecap="round" stroke-linejoin="round"/><path d="M178 24L179.65 27.73L183.71 28.15L180.66 30.87L181.53 34.85L178 32.8L174.47 34.85L175.34 30.87L172.29 28.15L176.35 27.73Z" fill="#2BB04A" stroke="#1B1B1B" stroke-width="1.5" stroke-linecap="round" stroke-linejoin="round"/><path d="M50 44H54V48H50Z" fill="#E5007E" stroke="#1B1B1B" stroke-width="1.5" stroke-linecap="round" stroke-linejoin="round"/><path d="M150 40H154V44H150Z" fill="#1D7BEF" stroke="#1B1B1B" stroke-width="1.5" stroke-linecap="round" stroke-linejoin="round"/><path d="M90 34H94V38H90Z" fill="#2BB04A" stroke="#1B1B1B" stroke-width="1.5" stroke-linecap="round" stroke-linejoin="round"/><path d="M116 30H120V34H116Z" fill="#E5007E" stroke="#1B1B1B" stroke-width="1.5" stroke-linecap="round" stroke-linejoin="round"/><path d="M30 76H34V80H30Z" fill="#FFD60A" stroke="#1B1B1B" stroke-width="1.5" stroke-linecap="round" stroke-linejoin="round"/><path d="M170 74H174V78H170Z" fill="#E63946" stroke="#1B1B1B" stroke-width="1.5" stroke-linecap="round" stroke-linejoin="round"/><path d="M66 66H134V110H66Z" fill="#E5007E" stroke="#1B1B1B" stroke-width="1.5" stroke-linecap="round" stroke-linejoin="round"/><path d="M66 66H134V70H66Z" fill="#E5007E" stroke="#1B1B1B" stroke-width="1.5" stroke-linecap="round" stroke-linejoin="round"/><path d="M94 66H106V110H94Z" fill="#FFD60A" stroke="#1B1B1B" stroke-width="1.5" stroke-linecap="round" stroke-linejoin="round"/><path d="M56 54L128 40L132 52L60 66Z" fill="#E5007E" stroke="#1B1B1B" stroke-width="1.5" stroke-linecap="round" stroke-linejoin="round"/><path d="M88 48L100 46L104 58L92 60Z" fill="#FFD60A" stroke="#1B1B1B" stroke-width="1.5" stroke-linecap="round" stroke-linejoin="round"/><path d="M96 47L84 32L80 42Z" fill="#FFD60A" stroke="#1B1B1B" stroke-width="1.5" stroke-linecap="round" stroke-linejoin="round"/><path d="M96 47L108 30L112 40Z" fill="#FFD60A" stroke="#1B1B1B" stroke-width="1.5" stroke-linecap="round" stroke-linejoin="round"/><path d="M100 64L100 58M84 64L78 56M116 64L122 56" fill="none" stroke="#FFFFFF" stroke-width="1.3" stroke-linecap="round" stroke-linejoin="round"/><path d="M0 0H200V9H0Z" fill="#1B1B1B"/><path d="M0 0L5 7.5L10 0Z" fill="#E63946"/><path d="M10 0L15 7.5L20 0Z" fill="#FFC21A"/><path d="M20 0L25 7.5L30 0Z" fill="#1D7BEF"/><path d="M30 0L35 7.5L40 0Z" fill="#2BB04A"/><path d="M40 0L45 7.5L50 0Z" fill="#E5007E"/><path d="M50 0L55 7.5L60 0Z" fill="#E63946"/><path d="M60 0L65 7.5L70 0Z" fill="#FFC21A"/><path d="M70 0L75 7.5L80 0Z" fill="#1D7BEF"/><path d="M80 0L85 7.5L90 0Z" fill="#2BB04A"/><path d="M90 0L95 7.5L100 0Z" fill="#E5007E"/><path d="M100 0L105 7.5L110 0Z" fill="#E63946"/><path d="M110 0L115 7.5L120 0Z" fill="#FFC21A"/><path d="M120 0L125 7.5L130 0Z" fill="#1D7BEF"/><path d="M130 0L135 7.5L140 0Z" fill="#2BB04A"/><path d="M140 0L145 7.5L150 0Z" fill="#E5007E"/><path d="M150 0L155 7.5L160 0Z" fill="#E63946"/><path d="M160 0L165 7.5L170 0Z" fill="#FFC21A"/><path d="M170 0L175 7.5L180 0Z" fill="#1D7BEF"/><path d="M180 0L185 7.5L190 0Z" fill="#2BB04A"/><path d="M190 0L195 7.5L200 0Z" fill="#E5007E"/><path d="M0 131H200V140H0Z" fill="#1B1B1B"/><path d="M0 140L5 132.5L10 140Z" fill="#E63946"/><path d="M10 140L15 132.5L20 140Z" fill="#FFC21A"/><path d="M20 140L25 132.5L30 140Z" fill="#1D7BEF"/><path d="M30 140L35 132.5L40 140Z" fill="#2BB04A"/><path d="M40 140L45 132.5L50 140Z" fill="#E5007E"/><path d="M50 140L55 132.5L60 140Z" fill="#E63946"/><path d="M60 140L65 132.5L70 140Z" fill="#FFC21A"/><path d="M70 140L75 132.5L80 140Z" fill="#1D7BEF"/><path d="M80 140L85 132.5L90 140Z" fill="#2BB04A"/><path d="M90 140L95 132.5L100 140Z" fill="#E5007E"/><path d="M100 140L105 132.5L110 140Z" fill="#E63946"/><path d="M110 140L115 132.5L120 140Z" fill="#FFC21A"/><path d="M120 140L125 132.5L130 140Z" fill="#1D7BEF"/><path d="M130 140L135 132.5L140 140Z" fill="#2BB04A"/><path d="M140 140L145 132.5L150 140Z" fill="#E5007E"/><path d="M150 140L155 132.5L160 140Z" fill="#E63946"/><path d="M160 140L165 132.5L170 140Z" fill="#FFC21A"/><path d="M170 140L175 132.5L180 140Z" fill="#1D7BEF"/><path d="M180 140L185 132.5L190 140Z" fill="#2BB04A"/><path d="M190 140L195 132.5L200 140Z" fill="#E5007E"/></svg>
