<svg xmlns="http://www.w3.org/2000/svg" viewBox="0 0 200 140" width="800" height="560"><path d="M0 0H200V140H0Z" fill="#38C6F4" stroke="#1B1B1B" stroke-width="1.5" stroke-linecap="round" stroke-linejoin="round"/><path d="M41.4 26.51L47 28L41.4 29.49Z" fill="#FFC21A" stroke="#1B1B1B" stroke-width="1.5" stroke-linecap="round" stroke-linejoin="round"/><path d="M40.62 32.41L44.72 36.5L39.13 34.99Z" fill="#FFC21A" stroke="#1B1B1B" stroke-width="1.5" stroke-linecap="round" stroke-linejoin="round"/><path d="M36.99 37.13L38.5 42.72L34.41 38.62Z" fill="#FFC21A" stroke="#1B1B1B" stroke-width="1.5" stroke-linecap="round" stroke-linejoin="round"/><path d="M31.49 39.4L30 45L28.51 39.4Z" fill="#FFC21A" stroke="#1B1B1B" stroke-width="1.5" stroke-linecap="round" stroke-linejoin="round"/><path d="M25.59 38.62L21.5 42.72L23.01 37.13Z" fill="#FFC21A" stroke="#1B1B1B" stroke-width="1.5" stroke-linecap="round" stroke-linejoin="round"/><path d="M20.87 34.99L15.28 36.5L19.38 32.41Z" fill="#FFC21A" stroke="#1B1B1B" stroke-width="1.5" stroke-linecap="round" stroke-linejoin="round"/><path d="M18.6 29.49L13 28L18.6 26.51Z" fill="#FFC21A" stroke="#1B1B1B" stroke-width="1.5" stroke-linecap="round" stroke-linejoin="round"/><path d="M19.38 23.59L15.28 19.5L20.87 21.01Z" fill="#FFC21A" stroke="#1B1B1B" stroke-width="1.5" stroke-linecap="round" stroke-linejoin="round"/><path d="M23.01 18.87L21.5 13.28L25.59 17.38Z" fill="#FFC21A" stroke="#1B1B1B" stroke-width="1.5" stroke-linecap="round" stroke-linejoin="round"/><path d="M28.51 16.6L30 11L31.49 16.6Z" fill="#FFC21A" stroke="#1B1B1B" stroke-width="1.5" stroke-linecap="round" stroke-linejoin="round"/><path d="M34.41 17.38L38.5 13.28L36.99 18.87Z" fill="#FFC21A" stroke="#1B1B1B" stroke-width="1.5" stroke-linecap="round" stroke-linejoin="round"/><path d="M39.13 21.01L44.72 19.5L40.62 23.59Z" fill="#FFC21A" stroke="#1B1B1B" stroke-width="1.5" stroke-linecap="round" stroke-linejoin="round"/><path d="M20 28A10 10 0 1 1 40 28A10 10 0 1 1 20 28Z" fill="#FFC21A" stroke="#1B1B1B" stroke-width="1.5" stroke-linecap="round" stroke-linejoin="round"/><path d="M0 60L30 44L64 56L100 40L140 54L176 42L200 50L200 96L0 96Z" fill="#1E9E8C" stroke="#1B1B1B" stroke-width="1.5" stroke-linecap="round" stroke-linejoin="round"/><path d="M0 82L50 72L110 80L160 70L200 78L200 104L0 104Z" fill="#3DB54A" stroke="#1B1B1B" stroke-width="1.5" stroke-linecap="round" stroke-linejoin="round"/><path d="M0 100H200V112H0Z" fill="#FFB238" stroke="#1B1B1B" stroke-width="1.5" stroke-linecap="round" stroke-linejoin="round"/><path d="M142 60H184V100H142Z" fill="#FFFFFF" stroke="#1B1B1B" stroke-width="1.5" stroke-linecap="round" stroke-linejoin="round"/><path d="M174 60H184V100H174Z" fill="#CFE0FF" stroke="#1B1B1B" stroke-width="1.5" stroke-linecap="round" stroke-linejoin="round"/><path d="M138 62L163 48L188 62Z" fill="#FFFFFF" stroke="#1B1B1B" stroke-width="1.5" stroke-linecap="round" stroke-linejoin="round"/><path d="M138 61H188V63.6H138Z" fill="#CFE0FF" stroke="#1B1B1B" stroke-width="1.5" stroke-linecap="round" stroke-linejoin="round"/><path d="M156 32H170V50H156Z" fill="#FFFFFF" stroke="#1B1B1B" stroke-width="1.5" stroke-linecap="round" stroke-linejoin="round"/><path d="M165 32H170V50H165Z" fill="#CFE0FF" stroke="#1B1B1B" stroke-width="1.5" stroke-linecap="round" stroke-linejoin="round"/><path d="M154 32L163 19L172 32Z" fill="#E63946" stroke="#1B1B1B" stroke-width="1.5" stroke-linecap="round" stroke-linejoin="round"/><path d="M159.5 46V39.5A3.5 3.5 0 0 1 166.5 39.5V46Z" fill="#5B2A86" stroke="#1B1B1B" stroke-width="1.5" stroke-linecap="round" stroke-linejoin="round"/><path d="M160 56A3 3 0 1 1 166 56A3 3 0 1 1 160 56Z" fill="#1D7BEF" stroke="#1B1B1B" stroke-width="1.5" stroke-linecap="round" stroke-linejoin="round"/><path d="M156 100V87A7 7 0 0 1 170 87V100Z" fill="#5B2A86" stroke="#1B1B1B" stroke-width="1.5" stroke-linecap="round" stroke-linejoin="round"/><path d="M163 19L163 12M160.5 14.5L165.5 14.5" fill="none" stroke="#1B1B1B" stroke-width="1.4" stroke-linecap="round" stroke-linejoin="round"/><path d="M72 102L80 102L79 65L92 44.28L87 42.8L76 57.6L65 42.8L60 44.28L73 65Z" fill="#8B5A2B" stroke="#1B1B1B" stroke-width="1.5" stroke-linecap="round" stroke-linejoin="round"/><path d="M28 58.4A16 16 0 1 1 60 58.4A16 16 0 1 1 28 58.4Z" fill="#1E8A3C" stroke="#1B1B1B" stroke-width="1.5" stroke-linecap="round" stroke-linejoin="round"/><path d="M44 49.6A16 16 0 1 1 76 49.6A16 16 0 1 1 44 49.6Z" fill="#1E8A3C" stroke="#1B1B1B" stroke-width="1.5" stroke-linecap="round" stroke-linejoin="round"/><path d="M60 45.6A16 16 0 1 1 92 45.6A16 16 0 1 1 60 45.6Z" fill="#1E8A3C" stroke="#1B1B1B" stroke-width="1.5" stroke-linecap="round" stroke-linejoin="round"/><path d="M76 49.6A16 16 0 1 1 108 49.6A16 16 0 1 1 76 49.6Z" fill="#1E8A3C" stroke="#1B1B1B" stroke-width="1.5" stroke-linecap="round" stroke-linejoin="round"/><path d="M92 58.4A16 16 0 1 1 124 58.4A16 16 0 1 1 92 58.4Z" fill="#1E8A3C" stroke="#1B1B1B" stroke-width="1.5" stroke-linecap="round" stroke-linejoin="round"/><path d="M39.2 45.6A12.8 12.8 0 1 1 64.8 45.6A12.8 12.8 0 1 1 39.2 45.6Z" fill="#2BB04A" stroke="#1B1B1B" stroke-width="1.5" stroke-linecap="round" stroke-linejoin="round"/><path d="M63.2 39.2A12.8 12.8 0 1 1 88.8 39.2A12.8 12.8 0 1 1 63.2 39.2Z" fill="#2BB04A" stroke="#1B1B1B" stroke-width="1.5" stroke-linecap="round" stroke-linejoin="round"/><path d="M87.2 45.6A12.8 12.8 0 1 1 112.8 45.6A12.8 12.8 0 1 1 87.2 45.6Z" fill="#2BB04A" stroke="#1B1B1B" stroke-width="1.5" stroke-linecap="round" stroke-linejoin="round"/><path d="M2 80H24V100H2Z" fill="#FFFFFF" stroke="#1B1B1B" stroke-width="1.5" stroke-linecap="round" stroke-linejoin="round"/><path d="M0 82L6 74L20 74L26 82Z" fill="#E63946" stroke="#1B1B1B" stroke-width="1.5" stroke-linecap="round" stroke-linejoin="round"/><path d="M9 90H16V100H9Z" fill="#5B2A86" stroke="#1B1B1B" stroke-width="1.5" stroke-linecap="round" stroke-linejoin="round"/><path d="M0 110H200V131H0Z" fill="#1D7BEF" stroke="#1B1B1B" stroke-width="1.5" stroke-linecap="round" stroke-linejoin="round"/><path d="M8 120L22 120M60 126L74 126M150 124L166 124M100 116L112 116" fill="none" stroke="#FFFFFF" stroke-width="1.3" stroke-linecap="round" stroke-linejoin="round"/><path d="M98 112L106 104L200 104L200 131L106 131Z" fill="#F7D9A8" stroke="#1B1B1B" stroke-width="1.5" stroke-linecap="round" stroke-linejoin="round"/><path d="M106 104H200V107H106Z" fill="#E7B97A" stroke="#1B1B1B" stroke-width="1.5" stroke-linecap="round" stroke-linejoin="round"/><path d="M114 131V131A17 17 0 0 1 148 131V131Z" fill="#1D7BEF" stroke="#1B1B1B" stroke-width="1.5" stroke-linecap="round" stroke-linejoin="round"/><path d="M158 131V131A17 17 0 0 1 192 131V131Z" fill="#1D7BEF" stroke="#1B1B1B" stroke-width="1.5" stroke-linecap="round" stroke-linejoin="round"/><path d="M104 100H200V104H104Z" fill="#E5007E" stroke="#1B1B1B" stroke-width="1.5" stroke-linecap="round" stroke-linejoin="round"/><path d="M108 100L108 104M116 100L116 104M124 100L124 104M132 100L132 104M140 100L140 104M148 100L148 104M156 100L156 104M164 100L164 104M172 100L172 104M180 100L180 104M188 100L188 104M196 100L196 104" fill="none" stroke="#1B1B1B" stroke-width="0.9" stroke-linecap="round" stroke-linejoin="round"/><path d="M0 0H200V9H0Z" fill="#1B1B1B"/><path d="M0 0L5 7.5L10 0Z" fill="#E63946"/><path d="M10 0L15 7.5L20 0Z" fill="#FFC21A"/><path d="M20 0L25 7.5L30 0Z" fill="#1D7BEF"/><path d="M30 0L35 7.5L40 0Z" fill="#2BB04A"/><path d="M40 0L45 7.5L50 0Z" fill="#E5007E"/><path d="M50 0L55 7.5L60 0Z" fill="#E63946"/><path d="M60 0L65 7.5L70 0Z" fill="#FFC21A"/><path d="M70 0L75 7.5L80 0Z" fill="#1D7BEF"/><path d="M80 0L85 7.5L90 0Z" fill="#2BB04A"/><path d="M90 0L95 7.5L100 0Z" fill="#E5007E"/><path d="M100 0L105 7.5L110 0Z" fill="#E63946"/><path d="M110 0L115 7.5L120 0Z" fill="#FFC21A"/><path d="M120 0L125 7.5L130 0Z" fill="#1D7BEF"/><path d="M130 0L135 7.5L140 0Z" fill="#2BB04A"/><path d="M140 0L145 7.5L150 0Z" fill="#E5007E"/><path d="M150 0L155 7.5L160 0Z" fill="#E63946"/><path d="M160 0L165 7.5L170 0Z" fill="#FFC21A"/><path d="M170 0L175 7.5L180 0Z" fill="#1D7BEF"/><path d="M180 0L185 7.5L190 0Z" fill="#2BB04A"/><path d="M190 0L195 7.5L200 0Z" fill="#E5007E"/><path d="M0 131H200V140H0Z" fill="#1B1B1B"/><path d="M0 140L5 132.5L10 140Z" fill="#E63946"/><path d="M10 140L15 132.5L20 140Z" fill="#FFC21A"/><path d="M20 140L25 132.5L30 140Z" fill="#1D7BEF"/><path d="M30 140L35 132.5L40 140Z" fill="#2BB04A"/><path d="M40 140L45 132.5L50 140Z" fill="#E5007E"/><path d="M50 140L55 132.5L60 140Z" fill="#E63946"/><path d="M60 140L65 132.5L70 140Z" fill="#FFC21A"/><path d="M70 140L75 132.5L80 140Z" fill="#1D7BEF"/><path d="M80 140L85 132.5L90 140Z" fill="#2BB04A"/><path d="M90 140L95 132.5L100 140Z" fill="#E5007E"/><path d="M100 140L105 132.5L110 140Z" fill="#E63946"/><path d="M110 140L115 132.5L120 140Z" fill="#FFC21A"/><path d="M120 140L125 132.5L130 140Z" fill="#1D7BEF"/><path d="M130 140L135 132.5L140 140Z" fill="#2BB04A"/><path d="M140 140L145 132.5L150 140Z" fill="#E5007E"/><path d="M150 140L155 132.5L160 140Z" fill="#E63946"/><path d="M160 140L165 132.5L170 140Z" fill="#FFC21A"/><path d="M170 140L175 132.5L180 140Z" fill="#1D7BEF"/><path d="M180 140L185 132.5L190 140Z" fill="#2BB04A"/><path d="M190 140L195 132.5L200 140Z" fill="#E5007E"/></svg>
